<svg width="200" height="50" viewBox="0 0 200 50" fill="none" xmlns="http://www.w3.org/2000/svg">
<style>
    .grad-cap { fill: hsl(221 83% 53%); }
    .text { fill: hsl(221 83% 53%); font-family: 'Playfair Display', serif; font-size: 30px; font-weight: bold; }
</style>
<path class="grad-cap" d="M19.9994 38.5417C19.9994 38.5417 22.916 36.6667 29.166 36.6667C35.416 36.6667 41.666 38.5417 41.666 38.5417V22.2917C41.666 21.7517 41.0117 21.4111 40.5754 21.664L29.9834 27.5646C29.4344 27.8746 28.7187 27.8851 28.1587 27.6013L10.4637 18.2933L2.29104 22.5873V35.4167C2.29104 38.5417 8.54104 41.6667 19.9994 41.6667C19.9994 41.6667 19.9994 38.5417 19.9994 38.5417Z" />
<path class="grad-cap" d="M29.1667 11.4583C29.1667 14.5332 24.9657 17.0833 20 17.0833C15.0343 17.0833 10.8333 14.5332 10.8333 11.4583C10.8333 8.38343 15.0343 5.83333 20 5.83333C24.9657 5.83333 29.1667 8.38343 29.1667 11.4583Z" />
<text x="60" y="35" class="text">FUNED</text>
</svg>
